%TF.GenerationSoftware,KiCad,Pcbnew,10.0.5*%
%TF.CreationDate,2026-08-04T08:45:45-07:00*%
%TF.ProjectId,AIU-001_ESP32_Carrier,4149552d-3030-4315-9f45-535033325f43,1.1*%
%TF.SameCoordinates,Original*%
%TF.FileFunction,Copper,L2,Bot*%
%TF.FilePolarity,Positive*%
%FSLAX46Y46*%
G04 Gerber Fmt 4.6, Leading zero omitted, Abs format (unit mm)*
G04 Created by KiCad (PCBNEW 10.0.5) date 2026-08-04 08:45:45*
%MOMM*%
%LPD*%
G01*
G04 APERTURE LIST*
G04 Aperture macros list*
%AMRoundRect*
0 Rectangle with rounded corners*
0 $1 Rounding radius*
0 $2 $3 $4 $5 $6 $7 $8 $9 X,Y pos of 4 corners*
0 Add a 4 corners polygon primitive as box body*
4,1,4,$2,$3,$4,$5,$6,$7,$8,$9,$2,$3,0*
0 Add four circle primitives for the rounded corners*
1,1,$1+$1,$2,$3*
1,1,$1+$1,$4,$5*
1,1,$1+$1,$6,$7*
1,1,$1+$1,$8,$9*
0 Add four rect primitives between the rounded corners*
20,1,$1+$1,$2,$3,$4,$5,0*
20,1,$1+$1,$4,$5,$6,$7,0*
20,1,$1+$1,$6,$7,$8,$9,0*
20,1,$1+$1,$8,$9,$2,$3,0*%
G04 Aperture macros list end*
%TA.AperFunction,ComponentPad*%
%ADD10RoundRect,0.270000X-0.630000X-0.630000X0.630000X-0.630000X0.630000X0.630000X-0.630000X0.630000X0*%
%TD*%
%TA.AperFunction,ComponentPad*%
%ADD11RoundRect,0.250000X-0.650000X-0.650000X0.650000X-0.650000X0.650000X0.650000X-0.650000X0.650000X0*%
%TD*%
%TA.AperFunction,Conductor*%
%ADD12C,0.400000*%
%TD*%
%TA.AperFunction,Conductor*%
%ADD13C,0.200000*%
%TD*%
G04 APERTURE END LIST*
D10*
%TO.P,MIMIR,0*%
%TO.N,GPIO0-BOOT*%
X157480000Y-109280000D03*
%TO.P,MIMIR,1*%
%TO.N,3v3*%
X127000000Y-76260000D03*
X132080000Y-76260000D03*
%TO.N,GPIO01*%
X157480000Y-83880000D03*
%TO.P,MIMIR,2*%
%TO.N,3v3*%
X127000000Y-78800000D03*
X132080000Y-78800000D03*
%TO.N,GPIO2*%
X157480000Y-86420000D03*
%TO.P,MIMIR,3*%
%TO.N,RST*%
X127000000Y-81340000D03*
X132080000Y-81340000D03*
%TO.N,GPIO03*%
X132080000Y-106740000D03*
%TO.P,MIMIR,4*%
%TO.N,GPIO04*%
X127000000Y-83880000D03*
X132080000Y-83880000D03*
%TO.P,MIMIR,5*%
%TO.N,GPIO05*%
X127000000Y-86420000D03*
X132080000Y-86420000D03*
%TO.P,MIMIR,5vIN*%
%TO.N,5v0*%
X132080000Y-127060000D03*
%TO.P,MIMIR,6*%
%TO.N,GPIO06*%
X127000000Y-88960000D03*
X132080000Y-88960000D03*
%TO.P,MIMIR,7*%
%TO.N,GPIO07*%
X127000000Y-91500000D03*
X132080000Y-91500000D03*
%TO.P,MIMIR,8*%
%TO.N,GPIO15*%
X127000000Y-94040000D03*
%TO.N,MISO*%
X132080000Y-104200000D03*
%TO.P,MIMIR,9*%
%TO.N,CS*%
X127000000Y-96580000D03*
%TO.N,GPIO09*%
X132080000Y-111820000D03*
%TO.P,MIMIR,10*%
%TO.N,MOSI*%
X127000000Y-99120000D03*
%TO.N,GPIO10*%
X132080000Y-114360000D03*
%TO.P,MIMIR,11*%
%TO.N,CLK*%
X127000000Y-101660000D03*
%TO.N,GPIO11*%
X132080000Y-116900000D03*
%TO.P,MIMIR,12*%
%TO.N,MISO*%
X127000000Y-104200000D03*
%TO.N,GPIO12*%
X132080000Y-119440000D03*
%TO.P,MIMIR,13*%
%TO.N,GPIO03*%
X127000000Y-106740000D03*
%TO.N,CTX*%
X132080000Y-121980000D03*
%TO.P,MIMIR,14*%
%TO.N,GPIO46*%
X127000000Y-109280000D03*
%TO.N,CRX*%
X132080000Y-124520000D03*
%TO.P,MIMIR,15*%
%TO.N,GPIO09*%
X127000000Y-111820000D03*
%TO.N,GPIO15*%
X132080000Y-94040000D03*
%TO.P,MIMIR,16*%
%TO.N,GPIO10*%
X127000000Y-114360000D03*
%TO.N,CS*%
X132080000Y-96580000D03*
%TO.P,MIMIR,17*%
%TO.N,GPIO11*%
X127000000Y-116900000D03*
%TO.N,MOSI*%
X132080000Y-99120000D03*
%TO.P,MIMIR,18*%
%TO.N,GPIO12*%
X127000000Y-119440000D03*
%TO.N,CLK*%
X132080000Y-101660000D03*
%TO.P,MIMIR,19*%
%TO.N,CTX*%
X127000000Y-121980000D03*
%TO.N,GPIO19-CLKO2*%
X157480000Y-124520000D03*
%TO.P,MIMIR,20*%
%TO.N,CRX*%
X127000000Y-124520000D03*
%TO.N,GPIO20-CLKO1*%
X157480000Y-121980000D03*
%TO.P,MIMIR,21*%
%TO.N,5v0*%
X127000000Y-127060000D03*
%TO.N,GPIO21-RTC*%
X157480000Y-119440000D03*
%TO.P,MIMIR,22*%
%TO.N,GND*%
X127000000Y-129600000D03*
%TO.P,MIMIR,23*%
X162560000Y-76260000D03*
%TO.P,MIMIR,24*%
%TO.N,TX*%
X162560000Y-78800000D03*
%TO.P,MIMIR,25*%
%TO.N,RX*%
X162560000Y-81340000D03*
%TO.P,MIMIR,26*%
%TO.N,GPIO01*%
X162560000Y-83880000D03*
%TO.P,MIMIR,27*%
%TO.N,GPIO2*%
X162560000Y-86420000D03*
%TO.P,MIMIR,28*%
%TO.N,MTMS-GPIO42*%
X162560000Y-88960000D03*
%TO.P,MIMIR,29*%
%TO.N,MTDI-CLK_O1*%
X162560000Y-91500000D03*
%TO.P,MIMIR,30*%
%TO.N,MTDO-CLK_O2*%
X162560000Y-94040000D03*
%TO.P,MIMIR,31*%
%TO.N,MTCK-CLK_03*%
X162560000Y-96580000D03*
%TO.P,MIMIR,32*%
%TO.N,GPIO38*%
X162560000Y-99120000D03*
%TO.P,MIMIR,33*%
%TO.N,GPIO37*%
X162560000Y-101660000D03*
%TO.P,MIMIR,34*%
%TO.N,GPIO36*%
X162560000Y-104200000D03*
%TO.P,MIMIR,35*%
%TO.N,GPIO35*%
X157480000Y-106740000D03*
X162560000Y-106740000D03*
D11*
%TO.P,MIMIR,36*%
%TO.N,GPIO36*%
X157480000Y-104200000D03*
D10*
%TO.N,GPIO0-BOOT*%
X162560000Y-109280000D03*
%TO.P,MIMIR,37*%
%TO.N,GPIO37*%
X157480000Y-101660000D03*
%TO.N,GPIO45-VSPI*%
X162560000Y-111820000D03*
%TO.P,MIMIR,38*%
%TO.N,GPIO38*%
X157480000Y-99120000D03*
%TO.N,GPIO48-SPICLK_N*%
X162560000Y-114360000D03*
%TO.P,MIMIR,39*%
%TO.N,MTCK-CLK_03*%
X157480000Y-96580000D03*
%TO.N,GPIO47-SPLICLK_P*%
X162560000Y-116900000D03*
%TO.P,MIMIR,40*%
%TO.N,MTDO-CLK_O2*%
X157480000Y-94040000D03*
%TO.N,GPIO21-RTC*%
X162560000Y-119440000D03*
%TO.P,MIMIR,41*%
%TO.N,MTDI-CLK_O1*%
X157480000Y-91500000D03*
%TO.N,GPIO20-CLKO1*%
X162560000Y-121980000D03*
%TO.P,MIMIR,42*%
%TO.N,MTMS-GPIO42*%
X157480000Y-88960000D03*
%TO.N,GPIO19-CLKO2*%
X162560000Y-124520000D03*
%TO.P,MIMIR,43*%
%TO.N,GND*%
X162560000Y-127060000D03*
%TO.P,MIMIR,44*%
X162560000Y-129600000D03*
%TO.P,MIMIR,45*%
%TO.N,3v3*%
X139700000Y-111820000D03*
%TO.N,GPIO45-VSPI*%
X157480000Y-111820000D03*
%TO.P,MIMIR,46*%
%TO.N,GPIO46*%
X132080000Y-109280000D03*
%TO.N,GND*%
X142240000Y-111820000D03*
%TO.P,MIMIR,47*%
%TO.N,CTX*%
X144780000Y-111820000D03*
%TO.N,GPIO47-SPLICLK_P*%
X157480000Y-116900000D03*
%TO.P,MIMIR,48*%
%TO.N,CRX*%
X147320000Y-111820000D03*
%TO.N,GPIO48-SPICLK_N*%
X157480000Y-114360000D03*
%TO.P,MIMIR,49*%
%TO.N,CANH*%
X149860000Y-111820000D03*
%TO.P,MIMIR,50*%
%TO.N,CANL*%
X152400000Y-111820000D03*
%TO.P,MIMIR,51*%
%TO.N,CANH*%
X149860000Y-134680000D03*
%TO.P,MIMIR,52*%
%TO.N,CANL*%
X152400000Y-134680000D03*
%TO.P,MIMIR,53*%
%TO.N,GND*%
X137160000Y-134680000D03*
%TO.P,MIMIR,54*%
%TO.N,5v0*%
X139700000Y-134680000D03*
%TO.P,MIMIR,55*%
%TO.N,3v3*%
X137160000Y-91500000D03*
%TO.P,MIMIR,56*%
%TO.N,CS*%
X139700000Y-91500000D03*
%TO.P,MIMIR,57*%
%TO.N,MOSI*%
X142240000Y-91500000D03*
%TO.P,MIMIR,58*%
%TO.N,CLK*%
X144780000Y-91500000D03*
%TO.P,MIMIR,59*%
%TO.N,MISO*%
X147320000Y-91500000D03*
%TO.P,MIMIR,60*%
%TO.N,GND*%
X149860000Y-91500000D03*
%TO.P,MIMIR,GND*%
X132080000Y-129600000D03*
X157480000Y-76260000D03*
X157480000Y-127060000D03*
X157480000Y-129600000D03*
%TO.P,MIMIR,RX*%
%TO.N,RX*%
X157480000Y-81340000D03*
%TO.P,MIMIR,TX*%
%TO.N,TX*%
X157480000Y-78800000D03*
%TD*%
%TO.N,3v3*%
D12*
X132080000Y-76260000D02*
X132080000Y-78800000D01*
X139540000Y-101440000D02*
X134620000Y-96520000D01*
X139540000Y-111820000D02*
X139540000Y-101440000D01*
X132080000Y-78800000D02*
X134620000Y-81340000D01*
X134620000Y-81340000D02*
X134620000Y-96520000D01*
D13*
X131980000Y-78740000D02*
X131920000Y-78800000D01*
%TO.N,GND*%
D12*
X149920000Y-127060000D02*
X142240000Y-119380000D01*
X162560000Y-127060000D02*
X162560000Y-129600000D01*
X165100000Y-129540000D02*
X162620000Y-129540000D01*
X165100000Y-76200000D02*
X165100000Y-129540000D01*
X157480000Y-129600000D02*
X157480000Y-127060000D01*
X142240000Y-119380000D02*
X142240000Y-111820000D01*
X139760000Y-129600000D02*
X157480000Y-129600000D01*
D13*
X139700000Y-129540000D02*
X139760000Y-129600000D01*
D12*
X162560000Y-76260000D02*
X165040000Y-76260000D01*
D13*
X165040000Y-76260000D02*
X165100000Y-76200000D01*
D12*
X162560000Y-129600000D02*
X157480000Y-129600000D01*
D13*
X162620000Y-129540000D02*
X162560000Y-129600000D01*
D12*
X137160000Y-132080000D02*
X139700000Y-129540000D01*
X137160000Y-134680000D02*
X137160000Y-132080000D01*
X162560000Y-127060000D02*
X157480000Y-127060000D01*
X157480000Y-127060000D02*
X149920000Y-127060000D01*
%TD*%
M02*
