%TF.GenerationSoftware,KiCad,Pcbnew,10.0.5*%
%TF.CreationDate,2026-08-04T08:45:45-07:00*%
%TF.ProjectId,AIU-001_ESP32_Carrier,4149552d-3030-4315-9f45-535033325f43,1.1*%
%TF.SameCoordinates,Original*%
%TF.FileFunction,Soldermask,Bot*%
%TF.FilePolarity,Negative*%
%FSLAX46Y46*%
G04 Gerber Fmt 4.6, Leading zero omitted, Abs format (unit mm)*
G04 Created by KiCad (PCBNEW 10.0.5) date 2026-08-04 08:45:45*
%MOMM*%
%LPD*%
G01*
G04 APERTURE LIST*
G04 Aperture macros list*
%AMRoundRect*
0 Rectangle with rounded corners*
0 $1 Rounding radius*
0 $2 $3 $4 $5 $6 $7 $8 $9 X,Y pos of 4 corners*
0 Add a 4 corners polygon primitive as box body*
4,1,4,$2,$3,$4,$5,$6,$7,$8,$9,$2,$3,0*
0 Add four circle primitives for the rounded corners*
1,1,$1+$1,$2,$3*
1,1,$1+$1,$4,$5*
1,1,$1+$1,$6,$7*
1,1,$1+$1,$8,$9*
0 Add four rect primitives between the rounded corners*
20,1,$1+$1,$2,$3,$4,$5,0*
20,1,$1+$1,$4,$5,$6,$7,0*
20,1,$1+$1,$6,$7,$8,$9,0*
20,1,$1+$1,$8,$9,$2,$3,0*%
G04 Aperture macros list end*
%ADD10C,3.200000*%
%ADD11RoundRect,0.270000X-0.630000X-0.630000X0.630000X-0.630000X0.630000X0.630000X-0.630000X0.630000X0*%
%ADD12RoundRect,0.250000X-0.650000X-0.650000X0.650000X-0.650000X0.650000X0.650000X-0.650000X0.650000X0*%
G04 APERTURE END LIST*
D10*
%TO.C,MIMIR*%
X129540000Y-71180000D03*
X129540000Y-134680000D03*
X144780000Y-101660000D03*
X160020000Y-71180000D03*
X160020000Y-134680000D03*
D11*
X157480000Y-109280000D03*
X127000000Y-76260000D03*
X132080000Y-76260000D03*
X157480000Y-83880000D03*
X127000000Y-78800000D03*
X132080000Y-78800000D03*
X157480000Y-86420000D03*
X127000000Y-81340000D03*
X132080000Y-81340000D03*
X132080000Y-106740000D03*
X127000000Y-83880000D03*
X132080000Y-83880000D03*
X127000000Y-86420000D03*
X132080000Y-86420000D03*
X132080000Y-127060000D03*
X127000000Y-88960000D03*
X132080000Y-88960000D03*
X127000000Y-91500000D03*
X132080000Y-91500000D03*
X127000000Y-94040000D03*
X132080000Y-104200000D03*
X127000000Y-96580000D03*
X132080000Y-111820000D03*
X127000000Y-99120000D03*
X132080000Y-114360000D03*
X127000000Y-101660000D03*
X132080000Y-116900000D03*
X127000000Y-104200000D03*
X132080000Y-119440000D03*
X127000000Y-106740000D03*
X132080000Y-121980000D03*
X127000000Y-109280000D03*
X132080000Y-124520000D03*
X127000000Y-111820000D03*
X132080000Y-94040000D03*
X127000000Y-114360000D03*
X132080000Y-96580000D03*
X127000000Y-116900000D03*
X132080000Y-99120000D03*
X127000000Y-119440000D03*
X132080000Y-101660000D03*
X127000000Y-121980000D03*
X157480000Y-124520000D03*
X127000000Y-124520000D03*
X157480000Y-121980000D03*
X127000000Y-127060000D03*
X157480000Y-119440000D03*
X127000000Y-129600000D03*
X162560000Y-76260000D03*
X162560000Y-78800000D03*
X162560000Y-81340000D03*
X162560000Y-83880000D03*
X162560000Y-86420000D03*
X162560000Y-88960000D03*
X162560000Y-91500000D03*
X162560000Y-94040000D03*
X162560000Y-96580000D03*
X162560000Y-99120000D03*
X162560000Y-101660000D03*
X162560000Y-104200000D03*
X157480000Y-106740000D03*
X162560000Y-106740000D03*
D12*
X157480000Y-104200000D03*
D11*
X162560000Y-109280000D03*
X157480000Y-101660000D03*
X162560000Y-111820000D03*
X157480000Y-99120000D03*
X162560000Y-114360000D03*
X157480000Y-96580000D03*
X162560000Y-116900000D03*
X157480000Y-94040000D03*
X162560000Y-119440000D03*
X157480000Y-91500000D03*
X162560000Y-121980000D03*
X157480000Y-88960000D03*
X162560000Y-124520000D03*
X162560000Y-127060000D03*
X162560000Y-129600000D03*
X139700000Y-111820000D03*
X157480000Y-111820000D03*
X132080000Y-109280000D03*
X142240000Y-111820000D03*
X144780000Y-111820000D03*
X157480000Y-116900000D03*
X147320000Y-111820000D03*
X157480000Y-114360000D03*
X149860000Y-111820000D03*
X152400000Y-111820000D03*
X149860000Y-134680000D03*
X152400000Y-134680000D03*
X137160000Y-134680000D03*
X139700000Y-134680000D03*
X137160000Y-91500000D03*
X139700000Y-91500000D03*
X142240000Y-91500000D03*
X144780000Y-91500000D03*
X147320000Y-91500000D03*
X149860000Y-91500000D03*
X132080000Y-129600000D03*
X157480000Y-76260000D03*
X157480000Y-127060000D03*
X157480000Y-129600000D03*
X157480000Y-81340000D03*
X157480000Y-78800000D03*
%TD*%
M02*
