M48
; DRILL file KiCad 10.0.5 date 2026-08-04T08:45:56
; FORMAT={-:-/ absolute / metric / decimal}
; #@! TF.CreationDate,2026-08-04T08:45:56-07:00
; #@! TF.GenerationSoftware,Kicad,Pcbnew,10.0.5
; #@! TF.FileFunction,MixedPlating,1,2
FMAT,2
METRIC
; #@! TA.AperFunction,Plated,PTH,ComponentDrill
T1C0.800
; #@! TA.AperFunction,Plated,PTH,ComponentDrill
T2C1.000
; #@! TA.AperFunction,NonPlated,NPTH,ComponentDrill
T3C3.200
%
G90
G05
T1
X132.08Y-76.26
X132.08Y-78.8
X132.08Y-81.34
X132.08Y-83.88
X132.08Y-86.42
X132.08Y-88.96
X132.08Y-91.5
X132.08Y-94.04
X132.08Y-96.58
X132.08Y-99.12
X132.08Y-101.66
X132.08Y-104.2
X132.08Y-106.74
X132.08Y-109.28
X132.08Y-111.82
X132.08Y-114.36
X132.08Y-116.9
X132.08Y-119.44
X132.08Y-121.98
X132.08Y-124.52
X132.08Y-127.06
X132.08Y-129.6
X137.16Y-91.5
X137.16Y-134.68
X139.7Y-91.5
X139.7Y-111.82
X139.7Y-134.68
X142.24Y-91.5
X142.24Y-111.82
X144.78Y-91.5
X144.78Y-111.82
X147.32Y-91.5
X147.32Y-111.82
X149.86Y-91.5
X149.86Y-111.82
X149.86Y-134.68
X152.4Y-111.82
X152.4Y-134.68
X157.48Y-76.26
X157.48Y-78.8
X157.48Y-81.34
X157.48Y-83.88
X157.48Y-86.42
X157.48Y-88.96
X157.48Y-91.5
X157.48Y-94.04
X157.48Y-96.58
X157.48Y-99.12
X157.48Y-101.66
X157.48Y-104.2
X157.48Y-106.74
X157.48Y-109.28
X157.48Y-111.82
X157.48Y-114.36
X157.48Y-116.9
X157.48Y-119.44
X157.48Y-121.98
X157.48Y-124.52
X157.48Y-127.06
X157.48Y-129.6
T2
X127.0Y-76.26
X127.0Y-78.8
X127.0Y-81.34
X127.0Y-83.88
X127.0Y-86.42
X127.0Y-88.96
X127.0Y-91.5
X127.0Y-94.04
X127.0Y-96.58
X127.0Y-99.12
X127.0Y-101.66
X127.0Y-104.2
X127.0Y-106.74
X127.0Y-109.28
X127.0Y-111.82
X127.0Y-114.36
X127.0Y-116.9
X127.0Y-119.44
X127.0Y-121.98
X127.0Y-124.52
X127.0Y-127.06
X127.0Y-129.6
X162.56Y-76.26
X162.56Y-78.8
X162.56Y-81.34
X162.56Y-83.88
X162.56Y-86.42
X162.56Y-88.96
X162.56Y-91.5
X162.56Y-94.04
X162.56Y-96.58
X162.56Y-99.12
X162.56Y-101.66
X162.56Y-104.2
X162.56Y-106.74
X162.56Y-109.28
X162.56Y-111.82
X162.56Y-114.36
X162.56Y-116.9
X162.56Y-119.44
X162.56Y-121.98
X162.56Y-124.52
X162.56Y-127.06
X162.56Y-129.6
T3
X129.54Y-71.18
X129.54Y-134.68
X144.78Y-101.66
X160.02Y-71.18
X160.02Y-134.68
M30
